# xmcd
#
# Track frame offsets: 
#        150
#        16302
#        29302
#        50643
#        71004
#        85757
#        106274
#        128932
#        145466
#        169090
#        185301
#        203208
#        217506
#        237018
#        256826
#        277911
#        294580
#        310001
#        324529
#
# Disc length: 4518 seconds
#
# Revision: 0
# Processed by: cddbd v1.5.2PL0 Copyright (c) Steve Scherf et al.
# Submitted via: ExactAudioCopy v0.95a4
#
DISCID=0811a413
DTITLE=Paco Bandeira - Uma vida de canções
DYEAR=2004
DGENRE=Música Portuguesa
TTITLE0=Fecha essa porta Maria
TTITLE1=Feira Popular
TTITLE2=De amar nunca me deixes
TTITLE3=Palhaço
TTITLE4=Em Lisboa (Capital de Lisboa)
TTITLE5=Lenga, lenga do Zé
TTITLE6=Bolero
TTITLE7=Aviso
TTITLE8=Direito de sonhar
TTITLE9=Portugal primeiro
TTITLE10=Sina cigana
TTITLE11=Porque a alma aqui é de ninguém
TTITLE12=Na cidade vaidade
TTITLE13=Passageiro de canções
TTITLE14=Os símbolos
TTITLE15=Matilde
TTITLE16=Gipsy Kings
TTITLE17=Cada qual
TTITLE18=Quando os amigos estão longe
EXTD=
EXTT0=
EXTT1=
EXTT2=
EXTT3=
EXTT4=
EXTT5=
EXTT6=
EXTT7=
EXTT8=
EXTT9=
EXTT10=
EXTT11=
EXTT12=
EXTT13=
EXTT14=
EXTT15=
EXTT16=
EXTT17=
EXTT18=
PLAYORDER=
